<svg width="3899" height="2693" viewBox="0 0 3899 2693" fill="none" xmlns="http://www.w3.org/2000/svg">
<g clip-path="url(#clip0_97_19)">
<path d="M-85.9454 -208.19C-84.4594 -210.839 -81.1072 -211.782 -78.4581 -210.296C-11.1472 -172.536 56.216 -134.747 168.927 -65.1897C281.6 4.34466 437.662 104.55 580.527 211.238C598.156 224.403 615.51 237.619 633.066 251.478C651.4 265.95 675.546 270.673 698.17 264.869C707.018 262.6 715.895 260.478 724.752 258.536C794.574 243.226 860.787 239.941 948.364 247.312C992.096 250.993 1040.68 257.359 1091.66 264.153C1142.68 270.954 1196.12 278.19 1249.75 283.65C1357 294.568 1461.84 297.845 1528.94 297.894C1595.88 297.944 1621.69 294.683 1659.3 285.735C1679.33 280.967 1682.97 254.847 1665.48 243.967C1450.94 110.51 1213.16 -30.1887 975.314 -170.928C972.7 -172.475 971.835 -175.848 973.382 -178.462C974.929 -181.076 978.302 -181.942 980.916 -180.395C1228.16 -34.0984 1475.47 112.246 1696.71 250.477C1714.14 261.366 1735.49 264.215 1754.89 257.436C1769.42 252.358 1784.51 246.746 1799.99 240.573C1853.86 219.098 1910.98 191.341 1951.7 165.71C2018.67 123.546 2054.1 71.9511 2086.22 21.7644C2133.56 -73.6474 2143.28 -96.4337 2151.45 -121.67C2153.02 -127.138 2154.58 -131.79 2156.22 -151.26C2156.48 -154.286 2159.14 -156.532 2162.17 -156.277C2165.19 -156.021 2167.44 -153.359 2167.18 -150.332C2165.46 -129.966 2163.75 -124.693 2162 -118.529L2161.97 -118.437L2161.94 -118.344C2153.46 -92.1575 2143.38 -68.6723 2095.94 26.9246L2095.81 27.1922L2095.65 27.4441C2063.31 77.983 2026.8 131.43 1957.56 175.019C1916.12 201.108 1858.36 229.149 1804.06 250.791C1796.25 253.906 1788.54 256.88 1780.94 259.716C1763.35 266.286 1760.42 290.503 1776.28 300.566C1932.68 399.826 2069.98 492.151 2179.56 569.1C2212.18 592.006 2257.3 583.468 2279.68 550.49C2326.01 482.238 2357.69 441.022 2388.7 402.538C2447.05 330.105 2501.4 269.155 2562.58 213.179C2623.7 157.244 2689.56 107.852 2755.17 58.6453C2757.6 56.8233 2761.05 57.3161 2762.87 59.7459C2764.7 62.1758 2764.2 65.6236 2761.77 67.4461C2696.09 116.706 2630.67 165.781 2570 221.293C2509.38 276.763 2455.42 337.255 2397.26 409.439C2365.66 448.656 2333.32 490.772 2285.12 562.077C2264.16 593.084 2272.08 634.988 2302.2 657.208C2312.28 664.649 2321.92 671.822 2331.11 678.714C2449.97 767.914 2486.4 805.924 2517.64 842.166C2519.14 843.906 2521.74 844.17 2523.56 842.76C2653.78 741.617 2779.73 643.782 2893.91 555.165C2905.21 546.395 2913.51 534.371 2917.9 520.759C2927.16 492.083 2936.93 463.76 2947.28 435.291C3000.05 290.097 3065.82 145.38 3125.89 40.7146C3186.02 -64.0665 3238.8 -126.739 3291.36 -189.151C3293.31 -191.473 3296.79 -191.771 3299.11 -189.815C3301.43 -187.858 3301.73 -184.388 3299.77 -182.065C3247.3 -119.752 3195.05 -57.6989 3135.43 46.1893C3075.74 150.193 3010.22 294.313 2957.62 439.049C2947.63 466.522 2979.27 488.923 3002.36 471.008C3040.65 441.31 3077.07 413.079 3111.25 386.597C3542.35 52.6249 3616.25 -1.56877 3690.16 -55.7697C3692.61 -57.5659 3696.05 -57.0362 3697.84 -54.5871C3699.64 -52.1376 3699.11 -48.6949 3696.66 -46.8986C3622.87 7.21354 3549.07 61.3353 3117.99 395.294C3063.27 437.685 3002.83 484.56 2938.14 534.762C2926.81 543.554 2918.41 555.607 2914.3 569.346C2883.17 673.339 2858.18 785.25 2836.52 928.09C2825.74 999.173 2815.93 1077.38 2807.81 1160.4C2802.89 1210.73 2852.09 1248.45 2899.82 1231.74C3012.4 1192.35 3122.46 1154.63 3224.67 1121.5C3391.95 1067.29 3536.34 1025.82 3667.46 988.192C3798.61 950.56 3916.4 916.799 4030.65 877.972C4259.16 800.322 4467.35 705.245 4608.68 637.4C4749.97 569.575 4822.09 530.239 4894.26 490.875C4896.93 489.42 4900.27 490.403 4901.72 493.069C4903.18 495.736 4902.19 499.077 4899.53 500.531C4827.27 539.941 4754.97 579.378 4613.45 647.317C4471.96 715.237 4263.31 810.53 4034.19 888.387C3919.64 927.315 3801.58 961.149 3670.49 998.765C3539.37 1036.39 3395.14 1077.82 3228.06 1131.97C3107.07 1171.18 2975.04 1216.84 2840.79 1264.13C2814.57 1273.36 2796.28 1297.26 2794.5 1325C2787.57 1433.21 2783.88 1546.42 2784.79 1660.35C2785.35 1731.18 2787.73 1801.72 2791.51 1870.87C2792.89 1896.18 2808.06 1918.64 2830.93 1929.56C2896.95 1961.1 2962.04 1991.76 3026.02 2021.29C3383.4 2186.29 3696.94 2311.5 3961.9 2404.17C3968.29 2406.4 3974.93 2407.68 3981.69 2407.98C4033.86 2410.31 4082.82 2411.98 4124.64 2413.04C4259.68 2416.47 4313.52 2413.19 4414.91 2398.43C4516.53 2383.62 4664.07 2357.39 4791.68 2327.5C4919.23 2297.62 5022.43 2264.85 5128.96 2231.03C5131.86 2230.12 5134.95 2231.72 5135.87 2234.61C5136.79 2237.51 5135.19 2240.6 5132.29 2241.52C5025.77 2275.33 4922.2 2308.22 4794.19 2338.21C4666.22 2368.19 4518.36 2394.47 4416.49 2409.31C4314.38 2424.18 4259.91 2427.48 4124.36 2424.04C4104.81 2423.54 4099.82 2450.99 4118.42 2457.04C4149.93 2467.29 4180.61 2477.03 4210.47 2486.26C4519.81 2581.98 4727.97 2619.67 4860.58 2640.72C4993.21 2661.78 5043.7 2665.01 5113.73 2662.62C5184.02 2660.21 5272.37 2652.03 5353.83 2637.19C5435.26 2622.35 5507.15 2601.11 5557.15 2582.04C5607.01 2563.02 5632.84 2546.84 5654.18 2531.28C5675.66 2515.63 5691.88 2501.04 5708.8 2485.82C5711.05 2483.78 5714.53 2483.97 5716.56 2486.22C5718.6 2488.48 5718.41 2491.96 5716.16 2493.99C5699.25 2509.2 5682.65 2524.15 5660.66 2540.17C5638.55 2556.29 5611.86 2572.94 5561.07 2592.32C5510.41 2611.64 5437.88 2633.06 5355.8 2648.01C5273.74 2662.96 5184.85 2671.19 5114.11 2673.61C5043.1 2676.04 4991.84 2672.7 4858.86 2651.59C4725.86 2630.47 4517.17 2592.67 4207.22 2496.77C4135.83 2474.69 4059.72 2449.76 3979.01 2421.78C3972.63 2419.56 3965.96 2418.28 3959.21 2417.96C3848.02 2412.7 3724.99 2404.54 3626.14 2393.12C3473.32 2375.46 3380.99 2350.74 3271.24 2310.39C3161.56 2270.07 3038.19 2215.77 2848.75 2106.54C2831.51 2096.6 2810.17 2110.24 2812.24 2130.03C2822 2223.27 2833.54 2310.41 2845.52 2387.96C2876.26 2586.98 2908.99 2714.49 2963.4 2842.23C2990.63 2906.15 3023.08 2969.24 3052.7 3024.55C3053.01 3025.13 3053.47 3025.62 3054.04 3025.95C3061.61 3030.46 3068.57 3034.37 3074.88 3037.73C3122.65 3063.16 3165.53 3074.58 3190.82 3079.51C3213.93 3081.06 3256.03 3074.71 3312.05 3061.54C3336.85 3054.96 3354.68 3048.47 3373.25 3041.72C3376.11 3040.68 3379.26 3042.15 3380.3 3045.01C3381.34 3047.86 3379.87 3051.02 3377.01 3052.06C3358.4 3058.82 3340.15 3065.46 3314.8 3072.2L3314.73 3072.21L3314.65 3072.23C3258.43 3085.45 3214.66 3092.22 3189.72 3090.47L3189.39 3090.44L3189.06 3090.38C3163.03 3085.33 3118.88 3073.61 3069.71 3047.44C3067.76 3046.4 3065.62 3048.54 3066.67 3050.48C3090.58 3094.63 3111.66 3132.66 3124.94 3160.09C3132.88 3176.48 3138 3189.08 3140.88 3198.77C3143.71 3208.28 3144.61 3215.71 3143.23 3221.35C3142.51 3224.3 3141.14 3226.84 3139.09 3228.81C3137.07 3230.76 3134.66 3231.9 3132.28 3232.55C3127.74 3233.79 3122.45 3233.46 3117.96 3233.06C3099.23 3231.4 3077.49 3226.38 3055.62 3221.33C3052.66 3220.65 3050.82 3217.69 3051.5 3214.73C3052.18 3211.77 3055.14 3209.93 3058.09 3210.61C3080.19 3215.71 3101.12 3220.53 3118.93 3222.1C3123.59 3222.52 3127 3222.59 3129.38 3221.94C3130.46 3221.64 3131.07 3221.26 3131.46 3220.89C3131.82 3220.55 3132.25 3219.95 3132.54 3218.74C3133.21 3216.03 3133.03 3210.95 3130.34 3201.91C3127.7 3193.03 3122.86 3181.03 3115.04 3164.88C3101.32 3136.54 3079.25 3096.89 3054.03 3050.23C3048.05 3039.17 3039.2 3029.95 3028.62 3023.17C2991.57 2999.44 2943.83 2964.44 2887.73 2915.41C2848.2 2880.85 2813.37 2845.91 2488.56 2444.2C2465.98 2416.28 2442.09 2386.69 2417.05 2355.66C2382.37 2312.68 2313.42 2324.8 2299.13 2378.15C2285.06 2430.64 2281.69 2460.75 2279.16 2497.74C2274.97 2558.95 2273.34 2637.46 2277.4 2697.41C2281.43 2757.04 2291.13 2795.86 2314.07 2853.44C2337.1 2911.24 2373.1 2986.51 2405.53 3044.06C2437.89 3101.5 2465.56 3138.91 2496.87 3173.62C2528 3208.13 2561.79 3238.78 2637.74 3269.25C2713.79 3299.77 2831.29 3329.25 3084.71 3344.45C3338.2 3359.66 3723.69 3359.66 3934.66 3357.2C4145.7 3354.74 4169.82 3349.81 4194.61 3344.85C4197.59 3344.25 4200.49 3346.19 4201.08 3349.16C4201.68 3352.14 4199.75 3355.04 4196.77 3355.64C4170.83 3360.82 4145.72 3365.74 3934.79 3368.2C3723.8 3370.66 3337.97 3370.67 3084.05 3355.44C2830.07 3340.2 2711.25 3310.6 2633.64 3279.46C2555.92 3248.27 2520.78 3216.55 2488.7 3180.99C2456.81 3145.63 2428.68 3107.55 2395.94 3049.46C2363.28 2991.49 2327.07 2915.78 2303.85 2857.51C2280.54 2799.01 2270.54 2759.07 2266.42 2698.15C2262.32 2637.55 2263.97 2558.51 2268.19 2496.99C2271.99 2441.41 2277.79 2400.97 2316.62 2282.82C2324.11 2260.05 2319.75 2234.98 2304.71 2216.31C2165.89 2044.05 2004.71 1843.89 1842.06 1643.08C1824.64 1621.58 1796.2 1612.42 1769.41 1619.34C1724.15 1631.04 1681.45 1641.3 1640.52 1650.43C1622 1654.56 1605.85 1665.88 1595.79 1681.98C1574.09 1716.7 1553.03 1750.1 1532.85 1781.74C1351.69 2065.7 1248.14 2195.57 1175.8 2279.02C1103.34 2362.59 1065.18 2395.79 977.933 2449.94C891.026 2503.89 756.205 2577.88 638.155 2628.36C519.915 2678.93 422.632 2703.65 298.546 2722.95C281.664 2725.58 268.877 2739.68 268.124 2756.74C261.892 2898.11 255.459 3031.71 249.91 3136.82C246.464 3202.09 243.359 3256.39 240.857 3294.74C239.607 3313.91 238.505 3329.13 237.584 3339.75C237.124 3345.05 236.706 3349.26 236.331 3352.26C236.145 3353.75 235.959 3355.02 235.772 3356.01C235.68 3356.5 235.571 3357.01 235.437 3357.48C235.367 3357.73 235.093 3358.75 234.407 3359.71C232.635 3362.18 229.198 3362.74 226.731 3360.97C224.692 3359.5 223.955 3356.9 224.762 3354.65C224.842 3354.42 224.92 3354.2 224.964 3353.97C225.088 3353.31 225.24 3352.3 225.416 3350.9C225.765 3348.1 226.169 3344.06 226.625 3338.8C227.535 3328.3 228.632 3313.18 229.881 3294.03C232.378 3255.74 235.48 3201.49 238.925 3136.24C243.724 3045.33 249.186 2933.08 254.608 2812.93C256.58 2769.22 218.353 2734.48 174.887 2739.51C85.1397 2749.89 -4.95017 2757.28 -72.464 2761.33C-171.862 2767.29 -218.27 2765.65 -304.013 2749.93C-389.409 2734.29 -512.666 2704.7 -639.415 2674.28C-642.369 2673.57 -644.188 2670.6 -643.48 2667.65C-642.77 2664.7 -639.802 2662.88 -636.849 2663.58C-509.971 2694.04 -387.061 2723.53 -302.03 2739.11C-217.347 2754.63 -171.852 2756.27 -73.1231 2750.35C1.156 2745.89 102.797 2737.39 201.105 2725.3C234.593 2721.18 259.89 2693.26 261.316 2659.55C261.415 2657.2 261.514 2654.86 261.613 2652.52C267.148 2521.33 272.293 2387.86 276.225 2267.83C277.524 2228.19 245.502 2195.85 205.939 2193C198.962 2192.49 192.09 2191.91 185.3 2191.25C125.63 2185.47 74.419 2173.9 27.4735 2160.53C-19.5325 2147.15 -60.8829 2132.26 -114.36 2105.61C-167.652 2079.05 -231.916 2041.16 -267.985 2020.99C-304.155 2000.78 -310.194 1999.44 -316.217 1997.93C-319.163 1997.2 -320.955 1994.21 -320.219 1991.26C-319.482 1988.32 -316.496 1986.52 -313.549 1987.26C-306.045 1989.14 -298.955 1991.08 -262.618 2011.39C-226.18 2031.76 -162.437 2069.36 -109.454 2095.76C-56.6576 2122.08 -15.9514 2136.73 30.4862 2149.95C76.9845 2163.19 127.523 2174.6 186.361 2180.3C202.93 2181.91 220.01 2183.06 237.954 2183.7C260.753 2184.52 279.364 2166.21 279.984 2143.4C284.002 1995.73 285.183 1884.19 281.535 1847.86C278.007 1812.73 273.281 1769.29 267.996 1721.03C264.573 1689.76 240.64 1664.95 209.881 1658.38C149.87 1645.57 95.4275 1627.4 -9.07237 1588.97C-174.653 1528.08 -465.264 1416.44 -714.358 1304.72C-963.491 1192.98 -1162.25 1084.57 -1286.04 1011.45C-1409.93 938.261 -1452.82 903.639 -1496.96 867.989C-1499.32 866.08 -1499.69 862.617 -1497.78 860.254C-1495.87 857.891 -1492.41 857.523 -1490.04 859.431C-1446.26 894.797 -1403.81 929.101 -1280.44 1001.98C-1156.97 1074.91 -958.575 1183.13 -709.856 1294.68C-461.095 1406.25 -170.753 1517.8 -5.27647 1578.65C74.4861 1607.98 124.833 1625.42 170.766 1637.68C215.535 1649.63 255.962 1611.14 251.089 1565.06C240.664 1466.49 230.517 1363.48 224.455 1276.63C216.633 1164.57 215.447 1082.26 217.233 1017.52C217.876 994.207 200.753 973.989 177.533 971.805C-13.2608 953.863 -173.74 958.781 -286.805 969.666C-399.775 980.542 -463.461 996.873 -527.358 1013.26C-530.301 1014.01 -533.298 1012.24 -534.053 1009.29C-534.807 1006.35 -533.033 1003.36 -530.091 1002.6C-465.982 986.163 -401.661 969.673 -287.859 958.717C-174.152 947.77 -12.9728 942.841 178.562 960.853C200.825 962.947 220.518 946.286 222.317 923.998C222.629 920.132 222.946 916.333 223.268 912.596C226.105 879.671 229.231 852.065 233.3 826.565C238.905 791.442 220.682 755.936 187.341 743.55C178.791 740.373 170.391 737.264 162.146 734.224C-134.58 624.826 -227.521 605.364 -326.746 598.113C-426.392 590.831 -529.48 595.733 -589.539 599.88C-649.498 604.019 -665.671 607.276 -681.811 610.504C-684.789 611.099 -687.687 609.168 -688.283 606.189C-688.879 603.211 -686.947 600.312 -683.969 599.717C-667.286 596.38 -650.636 593.072 -590.297 588.906C-530.058 584.747 -426.364 579.804 -325.944 587.142C-225.103 594.512 -130.957 614.437 165.951 723.903C183.785 730.478 202.342 737.376 221.585 744.586C236.04 750.002 252.017 741.787 256.507 727.017C274.772 666.923 302.804 596.008 335.428 535.488C368.078 474.919 404.453 426.955 434.836 393.911C465.48 360.582 489.081 343.764 536.776 321.917C543.911 318.649 551.58 315.274 559.697 311.848C597.591 295.85 606.902 244.663 573.945 220.052C431.456 113.644 275.707 13.6336 163.149 -55.8293C50.6303 -125.269 -16.579 -162.971 -83.839 -200.702C-86.488 -202.188 -87.4311 -205.541 -85.9454 -208.19ZM2544.3 1922.92C2506.85 1899.85 2457.66 1917.03 2442.73 1958.4C2404.96 2063.07 2368.1 2165.33 2341.96 2241.88C2341.49 2243.25 2341.76 2244.77 2342.67 2245.9C2398.73 2315.44 2450.7 2379.89 2497.11 2437.29C2822.23 2839.38 2856.34 2873.36 2894.97 2907.13C2930.74 2938.39 2976.24 2899.49 2957.32 2855.93C2955.96 2852.8 2954.62 2849.67 2953.28 2846.54C2898.38 2717.66 2865.47 2589.17 2834.65 2389.64C2821.79 2306.42 2809.44 2212.16 2799.25 2111.17C2797 2088.85 2784.34 2068.89 2765.07 2057.4C2695.98 2016.2 2621.37 1970.42 2544.3 1922.92ZM1525.49 1772.82C1552.42 1730.56 1514.53 1676.53 1465.15 1685.06C1455.98 1686.65 1447.52 1690.52 1440.14 1696.19C1054.45 1992.86 1019.55 2012.72 956.326 2041.15C891.639 2070.24 797.813 2108.11 695.921 2135.86C594.02 2163.61 487.027 2180.06 399.031 2188.54C384.155 2189.97 369.908 2191.16 356.214 2192.13C318.926 2194.75 288.641 2224.52 287.425 2261.88C283.466 2383.58 278.236 2519.47 272.603 2652.98C272.097 2664.98 271.588 2676.95 271.075 2688.9C270.469 2703.04 282.869 2714.26 296.854 2712.09C420.228 2692.9 516.596 2668.39 633.83 2618.25C751.255 2568.03 885.578 2494.32 972.132 2440.6C1058.35 2387.08 1095.68 2354.63 1167.49 2271.81C1239.41 2188.85 1342.64 2059.43 1523.57 1775.82C1524.21 1774.82 1524.85 1773.82 1525.49 1772.82ZM2895.52 1972.44C2850.38 1951.1 2798.93 1986.57 2803.26 2036.32C2805.08 2057.2 2816.9 2075.33 2835.02 2085.88C2841.49 2089.64 2847.9 2093.36 2854.24 2097.02C3043.2 2205.96 3166 2259.98 3275.03 2300.07C3384 2340.13 3475.48 2364.64 3627.4 2382.19C3678.51 2388.1 3693.73 2317.28 3645.83 2298.51C3455.98 2224.1 3247.44 2135.64 3021.41 2031.28C2979.9 2012.12 2937.92 1992.48 2895.52 1972.44ZM1974.24 1582.35C1958.66 1573.7 1939.04 1572.12 1921.94 1577.14C1875.85 1590.66 1858.99 1646.5 1889.21 1683.84C2015.84 1840.32 2140.56 1995.07 2253.45 2135.17C2288.02 2178.08 2356.55 2166.13 2375.05 2114.22C2392.97 2063.93 2412.56 2009.61 2432.38 1954.67C2435.86 1945.03 2439.34 1935.38 2442.82 1925.73C2454.07 1894.57 2441.91 1859.8 2413.7 1842.44C2336.3 1794.84 2258.14 1747.13 2182.1 1702C2110.92 1659.76 2042.1 1620.06 1974.24 1582.35ZM332.515 1678.43C302.713 1674.37 276.69 1699.33 279.96 1729.22C284.827 1773.72 289.173 1813.83 292.479 1846.76C296.216 1883.97 294.988 1996.41 290.98 2143.7C290.381 2165.72 308.257 2183.84 330.249 2182.7C351.352 2181.6 373.817 2179.92 397.976 2177.59C485.53 2169.16 591.882 2152.79 693.03 2125.24C794.188 2097.69 887.45 2060.07 951.814 2031.12C998.478 2010.13 1029.12 1994.24 1207.6 1859.82C1265.7 1816.07 1225.4 1718.9 1152.84 1723.84C1069.41 1729.51 984.367 1731.23 892.948 1728.7C693.158 1723.17 468.095 1696.89 332.515 1678.43ZM2551.95 1806.49C2527.23 1794.36 2497.59 1806.03 2488.29 1831.95C2480.92 1852.47 2488.77 1875.77 2507.33 1887.21C2573.49 1928.01 2638.22 1967.92 2699.75 2005.25C2739.15 2029.15 2788.86 1998.43 2785.61 1952.45C2784.16 1932.08 2771.95 1913.49 2753.56 1904.63C2687.15 1872.61 2619.89 1839.82 2551.95 1806.49ZM2779.82 1388.71C2782.35 1338.98 2733.75 1301.97 2686.83 1318.63C2685.24 1319.19 2683.65 1319.76 2682.05 1320.33C2658.52 1328.68 2641.39 1348.97 2635.95 1373.34C2621.42 1438.39 2597.12 1521.11 2548.88 1660.7C2542.96 1677.85 2536.68 1695.83 2530.12 1714.46C2518.31 1748 2533.35 1785.12 2565.28 1800.77C2602.11 1818.84 2638.74 1836.73 2675.14 1854.43C2723.21 1877.81 2778.63 1840.63 2776.66 1787.21C2775.11 1745.21 2774.12 1702.88 2773.79 1660.44C2773.06 1568.65 2775.3 1477.33 2779.82 1388.71ZM2032.34 1550.1C2027.17 1547.55 2021.02 1547.16 2015.51 1548.87C1996.48 1554.78 1993.92 1580.7 2011.29 1590.46C2068.99 1622.9 2127.51 1656.82 2187.71 1692.54C2264.95 1738.38 2344.14 1786.74 2422.43 1834.9C2444.85 1848.69 2474.45 1837.96 2483.33 1813.18C2490.44 1793.35 2481.36 1771.79 2462.47 1762.48C2398.57 1730.99 2334.15 1699.13 2269.36 1667.08C2190.82 1628.23 2111.73 1589.12 2032.34 1550.1ZM2603.08 1456.8C2617.99 1404.79 2567.81 1360.93 2516.8 1378.99C2390.39 1423.75 2268.44 1466.44 2158.74 1502.82C2115.77 1517.07 2111.32 1576.71 2151.91 1596.75C2192.81 1616.95 2233.6 1637.12 2274.24 1657.22C2326.05 1682.85 2377.63 1708.36 2428.88 1733.65C2466.4 1752.17 2511.7 1733.81 2525.54 1694.32C2530.01 1681.55 2534.34 1669.12 2538.49 1657.11C2567.88 1572.04 2588.33 1508.25 2603.08 1456.8ZM303.683 986.544C263.704 981.001 227.994 1011.29 227.602 1051.65C227.031 1110.44 228.934 1182.84 235.428 1275.87C242.34 1374.89 254.564 1494.87 266.457 1605.39C269.837 1636.8 293.886 1662.01 325.183 1666.32C328.076 1666.72 331.014 1667.12 333.999 1667.53C469.45 1685.97 694.053 1712.2 893.252 1717.71C1085.48 1723.03 1249.36 1709.47 1429.84 1679.86C1441.15 1678 1451.82 1673.34 1460.9 1666.34C1464.53 1663.55 1468.2 1660.72 1471.89 1657.88C1528.39 1614.36 1591.41 1565.7 1659.23 1513.25C1685.33 1493.06 1689.66 1455.3 1668.82 1429.71C1663.37 1423.01 1656.52 1417.62 1648.72 1413.9C1606.5 1393.75 1563.79 1374.03 1520.25 1354.63C1292.77 1253.24 1050.13 1163.08 817.373 1096.89C634.52 1044.9 461.829 1008.47 303.683 986.544ZM1611.09 1636.62C1628.49 1608.61 1594.29 1577.35 1568.19 1597.5C1536.84 1621.71 1506.9 1644.79 1478.6 1666.59C1476.46 1668.24 1477.96 1671.66 1480.63 1671.18C1516.92 1664.74 1553.9 1657.65 1592.29 1649.61C1600.18 1647.95 1606.83 1643.47 1611.09 1636.62ZM1758.85 1540.46C1737.83 1514.56 1696.85 1518.55 1679.38 1546.97C1656.91 1583.56 1689.75 1628.03 1731.4 1617.64C1732.19 1617.45 1732.97 1617.25 1733.76 1617.06C1767.71 1608.57 1780.91 1567.64 1758.85 1540.46ZM1736.28 1467.54C1728.69 1473.42 1727.46 1484.36 1733.51 1491.81C1755.91 1519.37 1778.37 1547.05 1800.84 1574.76C1810.94 1587.21 1826.37 1592.84 1841.81 1588.56C1876.5 1578.96 1882.52 1532.2 1850.68 1515.41C1818.63 1498.5 1786.6 1481.97 1754.44 1465.76C1748.56 1462.8 1741.48 1463.52 1736.28 1467.54ZM1776.57 1436.34C1766.3 1444.3 1767.89 1460.21 1779.47 1466.11C1834.16 1493.94 1888.57 1522.74 1943.43 1552.79C1948.35 1555.49 1953.97 1556.17 1959.35 1554.55C1977.5 1549.08 1979.64 1524.22 1962.61 1515.88C1906.86 1488.58 1850.99 1461.37 1795.11 1434.37C1789.08 1431.45 1781.87 1432.24 1776.57 1436.34ZM2559.03 914.526C2538.67 882.83 2495.18 878.73 2465.43 901.836C2270.17 1053.5 2068.24 1210.31 1884.32 1352.87C1843.24 1384.71 1849.95 1448.66 1896.68 1471.43C1931.19 1488.25 1965.68 1505.12 2000.11 1522.01C2016.22 1529.92 2034.75 1531.36 2051.85 1525.94C2084.95 1515.45 2119.37 1504.29 2155.27 1492.38C2288.71 1448.14 2440.28 1394.54 2596.08 1339.2C2619.75 1330.79 2637.37 1310.37 2640.7 1285.48C2647.76 1232.78 2648.26 1187.07 2640.94 1138.77C2631.68 1077.68 2610.53 1014.19 2587.38 965.715C2578.23 946.546 2568.89 929.881 2559.03 914.526ZM1717.2 1447.17C1709.36 1443.29 1701.76 1452.76 1707.28 1459.55C1710.82 1463.9 1717.61 1463.47 1720.53 1458.69C1723.02 1454.62 1721.47 1449.28 1717.2 1447.17ZM1764.38 1419.54C1761.26 1418.04 1757.5 1419.15 1755.7 1422.11C1751.07 1429.73 1746.43 1437.34 1741.81 1444.93C1741.26 1445.83 1741.6 1447.01 1742.55 1447.49C1743.17 1447.8 1743.92 1447.72 1744.47 1447.3C1751.47 1441.88 1758.51 1436.42 1765.58 1430.94C1769.54 1427.88 1768.89 1421.72 1764.38 1419.54ZM1685.56 1381.74C1669.21 1373.93 1653.68 1393.7 1665.13 1407.76C1666.71 1409.7 1668.71 1411.28 1670.96 1412.36C1686.3 1419.75 1701.58 1427.2 1716.81 1434.71C1724.79 1438.65 1734.45 1435.87 1739.07 1428.27C1744.34 1419.62 1741 1408.3 1731.87 1403.91C1716.43 1396.5 1701 1389.11 1685.56 1381.74ZM2301.42 670.314C2269.3 646.539 2223.88 655.087 2202.47 688.832C2178.72 726.253 2152.08 768.929 2121.86 818.03C2027.45 971.416 1898.74 1186.72 1771.74 1395.73C1767.93 1402.01 1770.36 1410.21 1776.98 1413.4C1781.23 1415.45 1786.25 1414.94 1789.98 1412.05C2011.34 1240.6 2266.91 1042.11 2508.82 854.206C2510.35 853.023 2510.57 850.809 2509.31 849.348C2478.73 813.879 2442.95 776.398 2324.5 687.512C2317.11 681.961 2309.41 676.226 2301.42 670.314ZM947.441 258.274C860.714 250.975 795.636 254.254 727.108 269.28C703.537 274.448 697.135 304.228 715.166 320.266C823.321 416.474 960.573 560.977 1211.78 858.596C1321.54 988.646 1452.75 1147.66 1591.37 1317.34C1597.97 1325.42 1606.29 1331.92 1615.72 1336.38C1642.95 1349.25 1670.19 1362.21 1697.44 1375.23C1729.93 1390.75 1768.92 1379.21 1787.59 1348.42C1906.19 1152.85 2024.21 955.683 2112.49 812.264C2144.37 760.464 2172.29 715.792 2197.03 676.883C2217.1 645.309 2209.28 603.453 2178.67 581.925C2068.38 504.333 1929.26 410.685 1770.39 309.853C1763.57 305.528 1756.73 301.193 1749.85 296.849C1732.57 285.93 1711.41 283.314 1691.7 288.75C1681.15 291.66 1671.17 294.217 1661.84 296.436C1623.16 305.64 1596.45 308.944 1528.93 308.894C1461.55 308.844 1356.33 305.557 1248.64 294.594C1194.8 289.113 1141.18 281.852 1090.2 275.057C1039.19 268.257 990.863 261.929 947.441 258.274ZM329.593 797.371C290.484 782.33 247.14 805.125 241.449 846.638C238.689 866.769 236.377 888.593 234.227 913.54C231.684 943.066 253.461 968.779 282.845 972.634C447.593 994.244 628.454 1031.73 820.382 1086.31C1053.7 1152.66 1296.83 1243.01 1524.73 1344.58C1542.05 1352.3 1559.23 1360.06 1576.31 1367.89C1592.71 1375.4 1608.27 1355.42 1596.86 1341.45C1595.27 1339.5 1593.27 1337.94 1590.99 1336.87C1554.32 1319.58 1517.69 1302.44 1481.12 1285.49C1045.04 1083.41 628.301 912.254 329.593 797.371ZM2852.46 773.047C2865.93 706.173 2785.99 652.867 2732.11 694.708C2684.08 732.007 2634.81 770.277 2584.74 809.171C2553.42 833.491 2549.36 878.471 2570.47 912.025C2579.76 926.776 2588.62 942.776 2597.31 960.975C2620.87 1010.32 2642.38 1074.84 2651.82 1137.13C2659.13 1185.35 2658.79 1230.96 2652.16 1282.67C2649.94 1300.03 2666.66 1314.12 2683.15 1308.26C2703.46 1301.05 2723.8 1293.83 2744.14 1286.62C2770.31 1277.35 2788.49 1253.5 2790.82 1225.84C2799.9 1117.78 2812 1016.42 2825.64 926.441C2834.03 871.149 2842.91 820.458 2852.46 773.047ZM688.555 311.556C670.71 296.127 646.092 291.193 623.821 298.972C592.69 309.845 564.238 321.436 541.357 331.917C494.814 353.236 472.463 369.24 442.933 401.356C413.142 433.757 377.308 480.979 345.11 540.708C312.886 600.487 285.119 670.708 267.031 730.216C262.148 746.28 270.843 763.145 286.534 769.118C587.846 883.81 1026.06 1062.49 1485.74 1275.51C1508.13 1285.89 1529.25 1258.75 1513.6 1239.67C1400.74 1101.99 1294.64 973.826 1203.37 865.691C937.131 550.259 799.266 407.279 688.555 311.556Z" fill="#B28DC4"/>
</g>
<defs>
<clipPath id="clip0_97_19">
<rect width="3899" height="2693" fill="white"/>
</clipPath>
</defs>
</svg>
